<svg width="50" height="50" viewBox="0 0 384 512" fill="white" xmlns="http://www.w3.org/2000/svg">
  <path d="M318.7 268c-.2-52.6 42.9-77.8 44.8-79.1-24.5-35.8-62.5-40.7-76-41.2-32.2-3.3-62.8 18.9-79 18.9-16.3 0-41.3-18.5-68-18-35 0-67.4 20.4-85.5 51.9-36.6 63.5-9.4 157.1 26.3 208.5 17.5 25.4 38.3 53.8 65.7 52.7 26.1-1 36-17 67.4-17 31.3 0 40.1 17 67.4 16.5 27.9-.4 45.5-25.8 62.8-51.4 19.7-28.8 27.9-56.7 28.2-58.2-.6-.2-54-20.8-54.3-82.6zM260.4 81.4c14.7-17.8 24.6-42.6 21.8-67.4-21.1.9-46.6 14-61.7 31.8-13.5 15.6-25.3 40.7-22.1 64.6 23.4 1.8 47.4-11.9 62-29z"/>
</svg>
